inDegrees=yes
name=ik_appendData_table_roll
DataType=double
version=3
OpenSimVersion=4.5
endheader
time	pelvis_tilt	pelvis_list	pelvis_rotation	pelvis_tx	pelvis_ty	pelvis_tz	hip_flexion_r	hip_adduction_r	hip_rotation_r	knee_angle_r	knee_angle_r_beta	ankle_angle_r	subtalar_angle_r	mtp_angle_r	hip_flexion_l	hip_adduction_l	hip_rotation_l	knee_angle_l	knee_angle_l_beta	ankle_angle_l	subtalar_angle_l	mtp_angle_l	lumbar_extension	lumbar_bending	lumbar_rotation	arm_flex_r	arm_add_r	arm_rot_r	elbow_flex_r	pro_sup_r	wrist_flex_r	wrist_dev_r	arm_flex_l	arm_add_l	arm_rot_l	elbow_flex_l	pro_sup_l	wrist_flex_l	wrist_dev_l
0	-0.1962012129696133	89.65413380226741	0.1963074298580585	0	0.9399999999999999	0	44.52190838592627	-10.08383735471424	0	59.93843514437424	1.046123041762413	-5.013226886844797	0	0	44.52190838592627	-10.08383735471424	0	59.93843514437424	1.046123041762413	-5.013226886844797	0	0	-0.001475532309159866	0.3449243926231879	-0.0001710417913616206	0	-12.10964337146845	0	76.36938724620742	44.88914410049732	0	0	-0.237399922620158	-0.05536100109128501	-0.005549577040190196	0.4873563736983889	44.88914410049732	0	0
1	-0.1965311067630934	89.6532535063766	0.1959315950732096	0	0.9399999999999999	0	44.52201977343717	-10.08376881782615	0	59.93844638669874	1.046123237977991	-5.013212771169736	0	0	44.52201977343717	-10.08376881782615	0	59.93844638669874	1.046123237977991	-5.013212771169736	0	0	0.0002891740607792527	0.3469074692293388	-0.0004149548679819322	0	-12.10998745941112	0	76.36906815081905	44.88921573541234	0	0	-0.2379990186468552	-0.05336769025124349	-0.005228955584613148	0.4861922332221166	44.88921573541234	0	0
2	-0.1972126053442231	89.64772273006305	0.1952378032740165	0	0.9399999999999999	0	44.52210191161696	-10.08371833960789	0	59.93845468131776	1.046123382746403	-5.013202378738107	0	0	44.52210191161696	-10.08371833960789	0	59.93845468131776	1.046123382746403	-5.013202378738107	0	0	0.002672056319171211	0.3616640312924277	-0.000980369179270462	0	-12.11024130752806	0	76.36883284704578	44.88926851052665	0	0	-0.2429226757782816	-0.04188783306801099	-0.004872200023777844	0.4847819954797614	44.88926851052665	0	0
3	-0.1957204308904675	89.6420567532069	0.1967309087402441	0	0.9399999999999999	0	44.52216031635029	-10.08368249825575	0	59.93846058353456	1.04612348575952	-5.013195002771574	0	0	44.52216031635029	-10.08368249825575	0	59.93846058353456	1.04612348575952	-5.013195002771574	0	0	0.006015255059149588	0.3928886249128756	0.0003743037933607586	0	-12.110421911812	0	76.36866553330515	44.88930599482978	0	0	-0.2481718477451149	-0.01164670181768217	-0.005875910319865357	0.4928598107829843	44.88930599482978	0	0
4	-0.7591584914024322	89.66668402893457	-0.3678776682830767	0	0.9399999999999999	0	44.5223439437526	-10.08357135972481	0	59.93847935439035	1.046123813372757	-5.013172189654266	0	0	44.5223439437526	-10.08357135972481	0	59.93847935439035	1.046123813372757	-5.013172189654266	0	0	-0.006152675533478816	0.3325940139095341	1.128198407469942	0	-12.1109944329178	0	76.36813949423269	44.8894225045247	0	0	-0.173935418119098	0.533224318707355	0.004303225276936475	0.3718247731344717	44.8894225045247	0	0
5	-0.7594798153726611	89.66671892148143	-0.3687406025143085	0	0.9399999999999999	0	44.52247837886799	-10.08348917759328	0	59.93849297619945	1.046124051118176	-5.013155292239293	0	0	44.52247837886799	-10.08348917759328	0	59.93849297619945	1.046124051118176	-5.013155292239293	0	0	-0.002791012742770943	0.3318925153420452	1.132316022738771	0	-12.11141100234817	0	76.3677543747862	44.8895085182513	0	0	-0.119645098011422	1.113906909175889	-0.5682423586347544	0.2919781387383005	44.8895085182513	0	0
6	-0.7598445169834204	89.66905777259944	-0.3730140383752244	0	0.9399999999999999	0	44.52313990923471	-10.08308700995487	0	59.93856001084231	1.046125221093406	-5.013072808773249	0	0	44.52313990923471	-10.08308700995487	0	59.93856001084231	1.046125221093406	-5.013072808773249	0	0	-0.0008348504885770648	0.3303120887809143	1.130718308053469	0	-12.11346255321255	0	76.36585927651791	44.88993014897878	0	0	-0.03400753099655211	2.837535223477698	-0.5736723801495041	0.1600737426760178	44.88993014897878	0	0
7	-0.7618220028235193	89.66781548816139	-0.3667053073417258	0	0.9399999999999999	0	44.52488852779522	-10.08234117044423	0	59.93878264127999	1.046129106727559	-5.012931504160822	0	0	44.52488852779522	-10.08234117044423	0	59.93878264127999	1.046129106727559	-5.012931504160822	0	0	-0.002727383827861004	0.3324206326696958	1.129331203618049	0	-12.11986323705287	0	76.36085073460575	44.89076822713706	0	0	-0.06527640923229637	5.701245866971206	-0.5669594810659692	0.09696207186839041	44.89076822713706	0	0
8	-0.7719299087553044	89.66507914228993	-0.3678490312738491	0	0.9399999999999999	0	44.52588443324565	-10.08189841296549	0	59.93890710675306	1.046131279059869	-5.012846616100933	0	0	44.52588443324565	-10.08189841296549	0	59.93890710675306	1.046131279059869	-5.012846616100933	0	0	0.0009532383156222523	0.3378745589074471	1.134030718534482	0	-12.12345720829491	0	76.3579981378992	44.89126102111613	0	0	-0.5619616443855701	8.050396563498023	-1.139235733322701	0.09775540359119887	44.89126102111613	0	0
9	-0.766721491719054	89.66648539954602	-0.3619688033814173	0	0.9399999999999999	0	44.52752044218929	-10.08119832785117	0	59.93911481322331	1.046134904221653	-5.012713847191997	0	0	44.52752044218929	-10.08119832785117	0	59.93911481322331	1.046134904221653	-5.012713847191997	0	0	-0.00467496646731556	0.331532796075494	1.128575013658027	0	-12.12943984682035	0	76.35331213774859	44.89204706227144	0	0	-0.546457068001961	10.87835029834036	-0.5348494858472544	0.06354801558938553	44.89204706227144	0	0
10	-1.337289321587074	89.67640319152065	-0.9145648683356936	0	0.9399999999999999	0	44.52950156939561	-10.08035026181541	0	59.93936697592218	1.046139305290999	-5.012552879863278	0	0	44.52950156939561	-10.08035026181541	0	59.93936697592218	1.046139305290999	-5.012552879863278	0	0	-0.01025473897919622	0.3259826989066435	2.248852519971592	0	-12.13669284292875	0	76.34763762616151	44.89299879421978	0	0	-1.085533607675158	14.4862640485365	-0.4777123661557731	0.05540941015534027	44.89299879421978	0	0
11	-1.351502687091768	89.67821598747096	-0.8861760781350053	0	0.9399999999999999	0	44.53158117883147	-10.07941533785303	0	59.93963020861671	1.046143899568217	-5.012372479928308	0	0	44.53158117883147	-10.07941533785303	0	59.93963020861671	1.046143899568217	-5.012372479928308	0	0	-0.01561012385707935	0.322261593080235	2.244808911303373	0	-12.14421762643174	0	76.34168096627015	44.89403478615429	0	0	-1.742162265082193	19.21277787691175	0.2661796734364197	0.0444707758390387	44.89403478615429	0	0
12	-1.382632257483588	89.67536863891047	-0.8896161548570931	0	0.9399999999999999	0	44.53438883148532	-10.07828286475622	0	59.93999128986494	1.046150201624866	-5.012161956851512	0	0	44.53438883148532	-10.07828286475622	0	59.93999128986494	1.046150201624866	-5.012161956851512	0	0	0.004974077924489589	0.3266142102192419	2.263945191179016	0	-12.15465916501306	0	76.33363917475744	44.89532548745429	0	0	-2.747646081318989	23.55417605033794	-0.1210708084824405	0.04428745256563001	44.89532548745429	0	0
13	-1.380871665164967	89.67329339282948	-0.8782013979703991	0	0.9399999999999999	0	44.53648569996913	-10.07733567458199	0	59.94025570170381	1.046154816482036	-5.011979033710404	0	0	44.53648569996913	-10.07733567458199	0	59.94025570170381	1.046154816482036	-5.011979033710404	0	0	-0.002219773962313208	0.3325193752196205	2.274380169782645	0	-12.16223476010147	0	76.32763307375458	44.89637407747536	0	0	-2.615983889274262	28.69206355571487	-0.6385986519771123	0.03107696394136552	44.89637407747536	0	0
14	-1.427427560586966	89.75572347005252	-0.8404746202869952	0	0.9399999999999999	0	44.53790014077901	-10.07671589392448	0	59.94043313582898	1.046157913291725	-5.011860721499592	0	0	44.53790014077901	-10.07671589392448	0	59.94043313582898	1.046157913291725	-5.011860721499592	0	0	-0.004900559403417293	0.2439086563857621	2.260721799006982	0	-12.16737090538437	0	76.32358168431634	44.89706611902428	0	0	-3.2591797256102	32.52156886122238	-0.4302463652326678	0.02884117660533833	44.89706611902428	0	0
